<svg xmlns="http://www.w3.org/2000/svg" width="1600" height="980" viewBox="0 0 1600 980" role="img" aria-labelledby="title desc">
  <title id="title">MelodieOS growth flywheel and twelve-project map</title>
  <desc id="desc">A clear non-technical overview showing how real problems enter one of twelve managed projects, absorb outside knowledge, produce real-world action, measure results, update the system and create safe public evidence.</desc>
  <defs>
    <marker id="arrow-navy" markerWidth="10" markerHeight="10" refX="8" refY="5" orient="auto" markerUnits="strokeWidth">
      <path d="M0,0 L10,5 L0,10 Z" fill="#1f3553"/>
    </marker>
    <marker id="arrow-gold" markerWidth="10" markerHeight="10" refX="8" refY="5" orient="auto" markerUnits="strokeWidth">
      <path d="M0,0 L10,5 L0,10 Z" fill="#b9852c"/>
    </marker>
    <style>
      .sans { font-family: -apple-system, BlinkMacSystemFont, "Segoe UI", Arial, sans-serif; }
      .serif { font-family: Georgia, "Times New Roman", serif; }
      .label { font-size: 15px; font-weight: 700; letter-spacing: 1.5px; fill: #617086; }
      .node-title { font-size: 20px; font-weight: 700; fill: #17263d; }
      .node-copy { font-size: 15px; fill: #526176; }
      .project { font-size: 16px; font-weight: 700; fill: #17263d; }
      .project-copy { font-size: 13px; fill: #5d6a7c; }
      .metric { font-size: 28px; font-weight: 700; fill: #17263d; }
      .metric-label { font-size: 14px; fill: #657084; }
    </style>
  </defs>

  <rect width="1600" height="980" fill="#eef1f5"/>
  <rect x="30" y="28" width="1540" height="924" rx="24" fill="#f9fafc" stroke="#cbd3de" stroke-width="2"/>

  <text x="70" y="82" class="serif" font-size="38" font-weight="700" fill="#17263d">MelodieOS</text>
  <text x="70" y="116" class="sans" font-size="18" fill="#526176">Real problems become managed projects. Knowledge becomes action. Results improve the system.</text>

  <g class="sans">
    <rect x="70" y="145" width="235" height="78" rx="14" fill="#ffffff" stroke="#d4dbe4"/>
    <text x="90" y="181" class="metric">12</text>
    <text x="90" y="207" class="metric-label">managed projects · P0–P11</text>

    <rect x="325" y="145" width="235" height="78" rx="14" fill="#ffffff" stroke="#d4dbe4"/>
    <text x="345" y="181" class="metric">7,470</text>
    <text x="345" y="207" class="metric-label">private Markdown files</text>

    <rect x="580" y="145" width="300" height="78" rx="14" fill="#ffffff" stroke="#d4dbe4"/>
    <text x="600" y="181" class="metric">45 / 3,391</text>
    <text x="600" y="207" class="metric-label">courses / lessons processed</text>

    <rect x="900" y="145" width="310" height="78" rx="14" fill="#edf7f1" stroke="#9bc7aa"/>
    <text x="920" y="181" class="metric">10+ jin</text>
    <text x="920" y="207" class="metric-label">lost through P9 management</text>

    <rect x="1230" y="145" width="300" height="78" rx="14" fill="#f7f0df" stroke="#d4b56e"/>
    <text x="1250" y="181" class="metric">1 system</text>
    <text x="1250" y="207" class="metric-label">shared across changing AI agents</text>
  </g>

  <text x="70" y="270" class="sans label">THE GROWTH FLYWHEEL</text>
  <rect x="60" y="290" width="990" height="585" rx="20" fill="#ffffff" stroke="#d4dbe4"/>

  <g class="sans">
    <rect x="95" y="335" width="190" height="106" rx="16" fill="#f7f0df" stroke="#d4b56e"/>
    <text x="115" y="370" class="node-title">1 · Real problem</text>
    <text x="115" y="397" class="node-copy">A real outcome is</text>
    <text x="115" y="419" class="node-copy">not changing.</text>

    <rect x="330" y="335" width="190" height="106" rx="16" fill="#edf1f6" stroke="#aeb9c7"/>
    <text x="350" y="370" class="node-title">2 · Project owner</text>
    <text x="350" y="397" class="node-copy">One P owns the</text>
    <text x="350" y="419" class="node-copy">problem and next step.</text>

    <rect x="565" y="335" width="190" height="106" rx="16" fill="#eaf5f4" stroke="#91c0bb"/>
    <text x="585" y="370" class="node-title">3 · Outside input</text>
    <text x="585" y="397" class="node-copy">Courses, clips, JDs,</text>
    <text x="585" y="419" class="node-copy">data and experience.</text>

    <rect x="800" y="335" width="190" height="106" rx="16" fill="#e9eef5" stroke="#9aabc0"/>
    <text x="820" y="370" class="node-title">4 · Distill &amp; link</text>
    <text x="820" y="397" class="node-copy">Keep the source; connect</text>
    <text x="820" y="419" class="node-copy">only what changes work.</text>

    <line x1="285" y1="388" x2="320" y2="388" stroke="#1f3553" stroke-width="3" marker-end="url(#arrow-navy)"/>
    <line x1="520" y1="388" x2="555" y2="388" stroke="#1f3553" stroke-width="3" marker-end="url(#arrow-navy)"/>
    <line x1="755" y1="388" x2="790" y2="388" stroke="#1f3553" stroke-width="3" marker-end="url(#arrow-navy)"/>

    <path d="M895 441 L895 490 L820 490" fill="none" stroke="#1f3553" stroke-width="3" marker-end="url(#arrow-navy)"/>

    <rect x="800" y="515" width="190" height="106" rx="16" fill="#f3ebdc" stroke="#caa55b"/>
    <text x="820" y="550" class="node-title">5 · Run action</text>
    <text x="820" y="577" class="node-copy">Publish, apply, contact,</text>
    <text x="820" y="599" class="node-copy">speak or follow a routine.</text>

    <rect x="565" y="515" width="190" height="106" rx="16" fill="#edf7f1" stroke="#9bc7aa"/>
    <text x="585" y="550" class="node-title">6 · Measure result</text>
    <text x="585" y="577" class="node-copy">What changed? What failed?</text>
    <text x="585" y="599" class="node-copy">What remains unproven?</text>

    <rect x="330" y="515" width="190" height="106" rx="16" fill="#e9eef5" stroke="#9aabc0"/>
    <text x="350" y="550" class="node-title">7 · Update system</text>
    <text x="350" y="577" class="node-copy">Correct the rule, project</text>
    <text x="350" y="599" class="node-copy">state and next action.</text>

    <rect x="95" y="515" width="190" height="106" rx="16" fill="#f7f0df" stroke="#d4b56e"/>
    <text x="115" y="550" class="node-title">8 · Public proof</text>
    <text x="115" y="577" class="node-copy">Publish only safe, real,</text>
    <text x="115" y="599" class="node-copy">verifiable evidence.</text>

    <line x1="800" y1="568" x2="765" y2="568" stroke="#1f3553" stroke-width="3" marker-end="url(#arrow-navy)"/>
    <line x1="565" y1="568" x2="530" y2="568" stroke="#1f3553" stroke-width="3" marker-end="url(#arrow-navy)"/>
    <line x1="330" y1="568" x2="295" y2="568" stroke="#b9852c" stroke-width="3" marker-end="url(#arrow-gold)"/>

    <path d="M425 515 L425 475 L190 475 L190 451" fill="none" stroke="#b9852c" stroke-width="3" marker-end="url(#arrow-gold)"/>
    <text x="225" y="468" font-size="13" font-weight="700" fill="#8a641f">THE NEXT CYCLE STARTS BETTER</text>

    <text x="95" y="678" class="label">OUTSIDE EXPERIENCE ENTERS AS INPUT, NOT TRUTH</text>
    <g font-size="15" font-weight="700" fill="#273a54">
      <rect x="95" y="700" width="115" height="38" rx="19" fill="#eef1f5"/><text x="152" y="725" text-anchor="middle">Courses</text>
      <rect x="222" y="700" width="95" height="38" rx="19" fill="#eef1f5"/><text x="269" y="725" text-anchor="middle">Clips</text>
      <rect x="329" y="700" width="160" height="38" rx="19" fill="#eef1f5"/><text x="409" y="725" text-anchor="middle">Job descriptions</text>
      <rect x="501" y="700" width="150" height="38" rx="19" fill="#eef1f5"/><text x="576" y="725" text-anchor="middle">Market data</text>
      <rect x="663" y="700" width="145" height="38" rx="19" fill="#eef1f5"/><text x="735" y="725" text-anchor="middle">Conversations</text>
      <rect x="820" y="700" width="120" height="38" rx="19" fill="#eef1f5"/><text x="880" y="725" text-anchor="middle">History</text>
    </g>

    <rect x="95" y="775" width="845" height="64" rx="14" fill="#17263d"/>
    <text x="120" y="802" font-size="14" font-weight="700" letter-spacing="1" fill="#d8bd7d">MANAGEMENT TEST</text>
    <text x="120" y="826" font-size="17" fill="#ffffff">Did the knowledge change a decision, action, routine or measurable result?</text>
  </g>

  <text x="1090" y="270" class="sans label">12 PROJECTS · ONE SYSTEM</text>
  <rect x="1080" y="290" width="450" height="655" rx="20" fill="#ffffff" stroke="#d4dbe4"/>

  <g class="sans">
    <text x="1110" y="330" class="label">STEER</text>
    <rect x="1110" y="346" width="390" height="54" rx="12" fill="#e9eef5" stroke="#9aabc0"/>
    <text x="1130" y="370" class="project">P0 · North Star</text>
    <text x="1310" y="370" class="project-copy">priorities · commitments · status</text>

    <text x="1110" y="435" class="label">UNDERSTAND</text>
    <rect x="1110" y="451" width="185" height="58" rx="12" fill="#eaf5f4"/>
    <text x="1126" y="476" class="project">P1 · Concepts</text><text x="1126" y="497" class="project-copy">plain-language knowledge</text>
    <rect x="1315" y="451" width="185" height="58" rx="12" fill="#eaf5f4"/>
    <text x="1331" y="476" class="project">P5 · Signals</text><text x="1331" y="497" class="project-copy">information → judgment</text>
    <rect x="1110" y="521" width="185" height="58" rx="12" fill="#eaf5f4"/>
    <text x="1126" y="546" class="project">P8 · Baize Map</text><text x="1126" y="567" class="project-copy">history · firms · power</text>
    <rect x="1315" y="521" width="185" height="58" rx="12" fill="#eaf5f4"/>
    <text x="1331" y="546" class="project">P11 · Mini MBA</text><text x="1331" y="567" class="project-copy">courses → usable knowledge</text>

    <text x="1110" y="616" class="label">ACT</text>
    <rect x="1110" y="632" width="185" height="58" rx="12" fill="#f3ebdc"/>
    <text x="1126" y="657" class="project">P2 · Career</text><text x="1126" y="678" class="project-copy">market demand · applications</text>
    <rect x="1315" y="632" width="185" height="58" rx="12" fill="#f3ebdc"/>
    <text x="1331" y="657" class="project">P4 · Relationships</text><text x="1331" y="678" class="project-copy">people · trust · next action</text>
    <rect x="1110" y="702" width="185" height="58" rx="12" fill="#f3ebdc" stroke="#d4b56e"/>
    <text x="1126" y="727" class="project">P6 · Growth Lab</text><text x="1126" y="748" class="project-copy">real users · tests · numbers</text>
    <rect x="1315" y="702" width="185" height="58" rx="12" fill="#f3ebdc"/>
    <text x="1331" y="727" class="project">P7 · Expression</text><text x="1331" y="748" class="project-copy">thinking → spoken language</text>

    <text x="1110" y="797" class="label">SUSTAIN</text>
    <rect x="1110" y="813" width="185" height="58" rx="12" fill="#edf7f1" stroke="#9bc7aa"/>
    <text x="1126" y="838" class="project">P9 · Health</text><text x="1126" y="859" class="project-copy">capacity · 10+ jin result</text>
    <rect x="1315" y="813" width="185" height="58" rx="12" fill="#edf7f1"/>
    <text x="1331" y="838" class="project">P10 · Finance</text><text x="1331" y="859" class="project-copy">runway · risk · options</text>

    <path d="M1202 690 L1202 696" stroke="#b9852c" stroke-width="3" marker-end="url(#arrow-gold)"/>
    <path d="M1202 760 L1202 775 L1305 775 L1305 879" fill="none" stroke="#b9852c" stroke-width="3" marker-end="url(#arrow-gold)"/>
    <rect x="1110" y="886" width="390" height="54" rx="12" fill="#f7f0df" stroke="#d4b56e"/>
    <text x="1130" y="908" class="project">P3 · AI Evidence</text><text x="1130" y="929" class="project-copy">P2 market → P6 test → safe public proof</text>
  </g>
</svg>
